HIERARCHY
ROOT joint_Root
{
	OFFSET 0.0 0.0 0.0
	CHANNELS 6 Xposition Yposition Zposition Zrotation Xrotation Yrotation 
	JOINT Hips
	{
		OFFSET 4.5925 91.4895 -427.239
		CHANNELS 6 Xposition Yposition Zposition Zrotation Xrotation Yrotation 
		JOINT Spine
		{
			OFFSET 15.7357 0.0 0.0
			CHANNELS 6 Xposition Yposition Zposition Zrotation Xrotation Yrotation 
			JOINT Chest
			{
				OFFSET 8.98455 -0.406207 0.0
				CHANNELS 6 Xposition Yposition Zposition Zrotation Xrotation Yrotation 
				JOINT Neck
				{
					OFFSET 16.3773 0.0 0.0
					CHANNELS 6 Xposition Yposition Zposition Zrotation Xrotation Yrotation 
					JOINT Head
					{
						OFFSET 6.45672 0.0 0.0
						CHANNELS 6 Xposition Yposition Zposition Zrotation Xrotation Yrotation 
						End Site
						{
							OFFSET 0.0 0.0 0.0
						}
					}
				}
				JOINT Shoulder_L
				{
					OFFSET 12.9942 -0.242716 4.98039
					CHANNELS 6 Xposition Yposition Zposition Zrotation Xrotation Yrotation 
					JOINT UpperArm_L
					{
						OFFSET 5.34809 0.0 0.0
						CHANNELS 6 Xposition Yposition Zposition Zrotation Xrotation Yrotation 
						JOINT LowerArm_L
						{
							OFFSET 24.3286 1.87007e-05 0.0
							CHANNELS 6 Xposition Yposition Zposition Zrotation Xrotation Yrotation 
							JOINT Hand_L
							{
								OFFSET 22.2916 0.0 0.0
								CHANNELS 6 Xposition Yposition Zposition Zrotation Xrotation Yrotation 
								End Site
								{
									OFFSET 0.0 0.0 0.0
								}
							}
						}
					}
				}
				JOINT Shoulder_R
				{
					OFFSET 12.9945 -0.242716 -4.98039
					CHANNELS 6 Xposition Yposition Zposition Zrotation Xrotation Yrotation 
					JOINT UpperArm_R
					{
						OFFSET -5.34813 0.0 0.0
						CHANNELS 6 Xposition Yposition Zposition Zrotation Xrotation Yrotation 
						JOINT LowerArm_R
						{
							OFFSET -24.3289 0.000322201 0.0
							CHANNELS 6 Xposition Yposition Zposition Zrotation Xrotation Yrotation 
							JOINT Hand_R
							{
								OFFSET -22.2915 -0.000108084 0.0
								CHANNELS 6 Xposition Yposition Zposition Zrotation Xrotation Yrotation 
								End Site
								{
									OFFSET 0.0 0.0 0.0
								}
							}
						}
					}
				}
			}
		}
		JOINT UpperLeg_L
		{
			OFFSET -2.19248 -6.46944 0.0
			CHANNELS 6 Xposition Yposition Zposition Zrotation Xrotation Yrotation 
			JOINT LowerLeg_L
			{
				OFFSET 39.0811 0.0 -1.23785e-05
				CHANNELS 6 Xposition Yposition Zposition Zrotation Xrotation Yrotation 
				JOINT Foot_L
				{
					OFFSET 40.9854 0.0 -1.26872e-05
					CHANNELS 6 Xposition Yposition Zposition Zrotation Xrotation Yrotation 
					JOINT Toes_L
					{
						OFFSET 11.7543 0.0 0.0
						CHANNELS 6 Xposition Yposition Zposition Zrotation Xrotation Yrotation 
						End Site
						{
							OFFSET 0.0 0.0 0.0
						}
					}
				}
			}
		}
		JOINT UpperLeg_R
		{
			OFFSET -2.19251 6.46944 0.0
			CHANNELS 6 Xposition Yposition Zposition Zrotation Xrotation Yrotation 
			JOINT LowerLeg_R
			{
				OFFSET -39.0811 -0.00228153 -0.0401928
				CHANNELS 6 Xposition Yposition Zposition Zrotation Xrotation Yrotation 
				JOINT Foot_R
				{
					OFFSET -40.9854 0.0 0.0
					CHANNELS 6 Xposition Yposition Zposition Zrotation Xrotation Yrotation 
					JOINT Toes_R
					{
						OFFSET -11.7543 0.0 0.0
						CHANNELS 6 Xposition Yposition Zposition Zrotation Xrotation Yrotation 
						End Site
						{
							OFFSET 0.0 0.0 0.0
						}
					}
				}
			}
		}
	}
}
MOTION
Frames:	4
Frame Time:	0.0333333
0.000000 0.000000 0.000000 0.000000 0.000000 -0.000000 -1.568510 82.601700 -2.337360 86.173100 -1.240750 9.791030 15.735700 0.000005 -0.000001 85.134600 81.201900 -84.514300 8.984550 -0.406207 -0.000000 9.777480 -1.472530 1.365630 16.377300 -0.000001 -0.000001 -2.846780 -2.525410 1.224020 6.456720 -0.000001 -0.000000 -5.256020 -0.388531 0.820514 12.994200 -0.242716 4.980390 -91.470700 5.068140 -73.794100 5.348090 -0.000007 -0.000001 -63.695900 28.473700 -11.486100 24.328600 0.000019 0.000005 13.068200 20.524900 -33.512500 22.291600 -0.000001 0.000005 14.508000 5.303630 -0.054572 12.994500 -0.242716 -4.980390 87.996000 10.931100 -79.544900 -5.348130 -0.000001 -0.000004 -58.245900 20.251200 -11.066300 -24.328900 0.000322 -0.000009 -0.023963 -0.037481 -31.536600 -22.291500 -0.000108 -0.000004 14.419300 5.376520 -2.120320 -2.192480 -6.469440 -0.000000 -170.014000 -11.680200 -17.278100 39.081100 -0.000007 -0.000012 -0.304266 0.160665 62.165000 40.985400 -0.000006 -0.000013 2.908100 9.334230 -85.013100 11.754300 -0.000000 0.000003 -0.000259 -0.002301 -16.663700 -2.192510 6.469440 -0.000001 -179.025000 11.422000 164.469000 -39.081100 -0.002282 -0.040193 0.065959 -0.035941 60.201100 -40.985400 0.000008 0.000006 8.314260 5.637540 -85.429900 -11.754300 -0.000006 -0.000006 -0.871887 -1.089260 -16.231600
0.000000 0.000000 0.000000 0.000000 0.000000 -0.000000 -1.783010 84.598700 -1.362410 86.046200 0.381996 9.774100 15.735700 0.000005 -0.000001 84.610000 82.005200 -84.957900 8.984550 -0.406207 -0.000000 8.150580 -1.496490 -0.588527 16.377300 -0.000001 -0.000001 -1.724970 -2.357040 1.009310 6.456720 -0.000001 -0.000000 -3.635070 -1.044950 2.345360 12.994200 -0.242716 4.980390 -91.482200 4.780200 -72.751200 5.348090 -0.000007 -0.000001 -66.462700 23.196100 -9.325910 24.328600 0.000019 0.000005 11.654700 21.215700 -29.677200 22.291600 -0.000001 0.000005 16.665300 5.157020 3.754260 12.994500 -0.242716 -4.980390 87.993300 10.251400 -78.861200 -5.348130 -0.000001 -0.000004 -60.285700 13.099200 -8.629430 -24.328900 0.000322 -0.000009 -0.957003 -1.425250 -33.836000 -22.291500 -0.000108 -0.000004 8.025370 5.326180 -0.688953 -2.192480 -6.469440 -0.000000 -169.460000 -12.226800 -13.882200 39.081100 -0.000007 -0.000012 -0.204694 0.136892 56.227700 40.985400 -0.000006 -0.000013 3.330980 11.509900 -82.686700 11.754300 -0.000000 0.000003 -0.000198 -0.001839 -16.646900 -2.192510 6.469440 -0.000001 -179.062000 12.618300 168.295000 -39.081100 -0.002282 -0.040193 0.060108 -0.041190 54.088100 -40.985400 0.000008 0.000006 8.007740 5.702230 -82.785500 -11.754300 -0.000006 -0.000006 -1.048920 -1.312710 -16.502900
0.000000 0.000000 0.000000 0.000000 0.000000 -0.000000 -1.766360 87.455100 -0.339168 85.894300 1.718270 8.778070 15.735700 0.000005 -0.000001 82.924500 83.243900 -84.257800 8.984550 -0.406207 -0.000000 5.627350 -1.635500 -2.583280 16.377300 -0.000001 -0.000001 0.022699 -2.104000 0.922334 6.456720 -0.000001 -0.000000 -2.472790 -1.245880 3.674500 12.994200 -0.242716 4.980390 -91.563400 4.626190 -71.303200 5.348090 -0.000007 -0.000001 -67.524200 19.729000 -6.246830 24.328600 0.000019 0.000005 7.376970 15.102900 -26.420800 22.291600 -0.000001 0.000005 17.004300 5.117720 4.696380 12.994500 -0.242716 -4.980390 88.071100 8.860530 -77.664600 -5.348130 -0.000001 -0.000004 -55.428300 9.539730 -10.258100 -24.328900 0.000322 -0.000009 -0.259066 -0.312292 -40.054200 -22.291500 -0.000108 -0.000004 5.561930 5.377160 -2.195780 -2.192480 -6.469440 -0.000000 -169.436000 -12.514900 -9.662830 39.081100 -0.000007 -0.000012 -0.128564 0.121230 46.682500 40.985400 -0.000006 -0.000013 3.006950 13.019800 -78.511700 11.754300 -0.000000 0.000003 -0.000104 -0.001066 -16.618400 -2.192510 6.469440 -0.000001 -179.204000 14.334100 172.754000 -39.081100 -0.002282 -0.040193 0.045650 -0.043158 44.482000 -40.985400 0.000008 0.000006 7.627490 7.009090 -77.691800 -11.754300 -0.000006 -0.000006 -1.205590 -1.486470 -17.426100
0.000000 0.000000 0.000000 0.000000 0.000000 -0.000000 -1.448100 89.956400 0.217342 86.179200 1.958740 6.096220 15.735700 0.000005 -0.000001 79.893400 85.036100 -82.172500 8.984550 -0.406207 -0.000000 1.980330 -1.626020 -4.525940 16.377300 -0.000001 -0.000001 1.824540 -1.432250 0.703868 6.456720 -0.000001 -0.000000 -1.371200 -0.844115 4.491670 12.994200 -0.242716 4.980390 -91.310800 3.573770 -69.840400 5.348090 -0.000007 -0.000001 -68.360000 16.939500 -1.838860 24.328600 0.000019 0.000005 6.454240 13.046200 -26.615600 22.291600 -0.000001 0.000005 13.000000 5.165780 3.543880 12.994500 -0.242716 -4.980390 88.413200 6.727290 -76.693000 -5.348130 -0.000001 -0.000004 -46.363900 2.812090 -15.862700 -24.328900 0.000322 -0.000009 1.384940 1.203120 -49.055200 -22.291500 -0.000108 -0.000004 8.916290 5.440870 -4.278280 -2.192480 -6.469440 -0.000000 -170.682000 -12.608200 -6.982210 39.081100 -0.000007 -0.000012 -0.084274 0.114050 36.461900 40.985400 -0.000006 -0.000013 2.098500 12.975600 -73.649100 11.754300 -0.000000 0.000003 -0.000076 -0.000812 -16.608900 -2.192510 6.469440 -0.000001 -179.837000 17.651600 174.692000 -39.081100 -0.002282 -0.040193 0.032580 -0.040920 35.595200 -40.985400 0.000008 0.000006 7.545460 10.728800 -71.737800 -11.754300 -0.000006 -0.000006 -0.885219 -1.064970 -18.745300
